<svg width="780" height="118" xmlns="http://www.w3.org/2000/svg">
 <metadata id="metadata8">image/svg+xml</metadata>
 <defs>
  <clipPath clipPathUnits="userSpaceOnUse" id="clipPath34">
   <path d="m-129.75001,848.78002l841.89,0l0,-595.28l-841.89,0l0,595.28z" id="path32"/>
  </clipPath>
 </defs>
 <g>
  <title>background</title>
  <rect fill="none" id="canvas_background" height="120" width="782" y="-1" x="-1"/>
 </g>
 <g>
  <title>Layer 1</title>
  <g id="g10" transform="matrix(1.33333, 0, 0, -1.33333, 0, 793.707)">
   <g id="g12">
    <path fill="#080000" fill-rule="nonzero" d="m101.19118,575.58351l-7.879,-0.177l11.252,19.013l10.231,0.207l0,-85.679l-13.604,0l0,66.636z" id="path14"/>
   </g>
   <g id="g16">
    <path fill="#080000" fill-rule="nonzero" d="m-0.02072,594.62703l15.718,0l24.652,-49.554l24.653,49.554l15.857,0l-35.554,-69.003l-10.034,0l-35.292,69.003z" id="path18"/>
   </g>
   <g id="g20">
    <path fill="#080000" fill-rule="nonzero" d="m14.69759,509.14752l-13.875,0l0,68.241l13.875,-26.267l0,-41.974z" id="path22"/>
   </g>
   <g id="g24">
    <path fill="#080000" fill-rule="nonzero" d="m80.00129,575.58351l0,-66.436l-13.874,0l0,40.168l13.874,26.268z" id="path26"/>
   </g>
   <g id="g28">
    <g id="g30" clip-path="url(#clipPath34)">
     <g id="g36">
      <path fill="#ef3239" fill-rule="nonzero" d="m160.91778,538.3701l12.71,0l0,-13.299c0,-3.218 -0.647,-5.925 -1.941,-8.121c-1.295,-2.197 -2.963,-3.982 -5.003,-5.354c-2.04,-1.374 -4.315,-2.374 -6.826,-3.001c-2.511,-0.627 -4.982,-0.942 -7.414,-0.942c-2.511,0 -5.022,0.315 -7.532,0.942c-2.512,0.627 -4.786,1.627 -6.827,3.001c-2.041,1.372 -3.706,3.157 -5,5.354c-1.295,2.196 -1.942,4.903 -1.942,8.121l0,52.019c0,3.216 0.647,5.944 1.942,8.18c1.294,2.236 2.959,4.04 5,5.414c2.041,1.372 4.315,2.373 6.827,3.001c2.51,0.627 5.021,0.942 7.532,0.942c2.432,0 4.903,-0.315 7.414,-0.942c2.511,-0.628 4.786,-1.629 6.826,-3.001c2.04,-1.374 3.708,-3.178 5.003,-5.414c1.294,-2.236 1.941,-4.964 1.941,-8.18l0,-13.298l-12.71,0l0,13.298c0,1.177 -0.256,2.197 -0.766,3.061c-0.51,0.862 -1.176,1.548 -2,2.059c-0.824,0.51 -1.747,0.883 -2.766,1.118c-1.02,0.235 -2,0.354 -2.942,0.354c-0.941,0 -1.923,-0.119 -2.943,-0.354c-1.019,-0.235 -1.941,-0.608 -2.765,-1.118c-0.823,-0.511 -1.511,-1.177 -2.059,-2.001c-0.551,-0.823 -0.824,-1.864 -0.824,-3.119l0,-52.019c0,-1.177 0.273,-2.197 0.824,-3.06c0.548,-0.865 1.236,-1.55 2.059,-2.06c0.824,-0.511 1.746,-0.882 2.765,-1.118c1.02,-0.234 2.002,-0.353 2.943,-0.353c0.942,0 1.922,0.119 2.942,0.353c1.019,0.236 1.942,0.607 2.766,1.118c0.824,0.51 1.49,1.195 2,2.06c0.51,0.863 0.766,1.883 0.766,3.06l0,13.299z" id="path38"/>
     </g>
     <g id="g40">
      <path fill="#ef3239" fill-rule="nonzero" d="m222.5443,508.94731l-18.595,38.014l-3.061,0l0,-38.014l-12.71,0l0,84.267l12.71,0l0,-35.307l3.649,0l17.065,35.307l12.593,0l0,-2.118l-18.124,-39.309l19.183,-40.722l0,-2.118l-12.71,0z" id="path42"/>
     </g>
     <g id="g44">
      <path fill="#ef3239" fill-rule="nonzero" d="m275.1541,577.09041c0,1.177 -0.256,2.196 -0.765,3.061c-0.511,0.862 -1.176,1.547 -2,2.059c-0.825,0.51 -1.748,0.882 -2.767,1.118c-1.02,0.235 -2,0.353 -2.941,0.353c-0.942,0 -1.924,-0.118 -2.943,-0.353c-1.02,-0.236 -1.942,-0.608 -2.765,-1.118c-0.824,-0.512 -1.512,-1.177 -2.06,-2.001c-0.55,-0.824 -0.823,-1.865 -0.823,-3.119l0,-52.019c0,-1.177 0.273,-2.197 0.823,-3.061c0.548,-0.864 1.236,-1.549 2.06,-2.059c0.823,-0.511 1.745,-0.882 2.765,-1.118c1.019,-0.235 2.001,-0.353 2.943,-0.353c0.941,0 1.921,0.118 2.941,0.353c1.019,0.236 1.942,0.607 2.767,1.118c0.824,0.51 1.489,1.195 2,2.059c0.509,0.864 0.765,1.884 0.765,3.061l0,52.019zm-29.775,0c0,3.216 0.647,5.944 1.942,8.18c1.294,2.236 2.96,4.04 5.001,5.414c2.04,1.371 4.314,2.372 6.826,3.001c2.51,0.627 5.021,0.942 7.533,0.942c2.431,0 4.902,-0.315 7.413,-0.942c2.511,-0.629 4.786,-1.63 6.827,-3.001c2.039,-1.374 3.708,-3.178 5.002,-5.414c1.294,-2.236 1.941,-4.964 1.941,-8.18l0,-52.019c0,-3.218 -0.647,-5.925 -1.941,-8.121c-1.294,-2.197 -2.963,-3.983 -5.002,-5.355c-2.041,-1.374 -4.316,-2.374 -6.827,-3.001c-2.511,-0.627 -4.982,-0.941 -7.413,-0.941c-2.512,0 -5.023,0.314 -7.533,0.941c-2.512,0.627 -4.786,1.627 -6.826,3.001c-2.041,1.372 -3.707,3.158 -5.001,5.355c-1.295,2.196 -1.942,4.903 -1.942,8.121l0,52.019z" id="path46"/>
     </g>
     <g id="g48">
      <path fill="#ef3239" fill-rule="nonzero" d="m338.79229,508.94731l0,73.322l-14.476,0l0,-37.308c0,-6.827 -0.432,-12.535 -1.295,-17.124c-0.864,-4.59 -2.256,-8.297 -4.178,-11.122c-1.923,-2.825 -4.434,-4.825 -7.531,-6.002c-3.101,-1.177 -6.886,-1.766 -11.358,-1.766l0,11.063c2.354,0.078 4.295,0.43 5.825,1.059c1.53,0.627 2.726,1.902 3.589,3.825c0.863,1.921 1.451,4.628 1.767,8.121c0.312,3.49 0.47,8.179 0.47,14.064l0,46.135l39.78,0l0,-84.267l-12.593,0z" id="path50"/>
     </g>
     <g id="g52">
      <path fill="#ef3239" fill-rule="nonzero" d="m401.80602,508.94731l-18.596,38.014l-3.06,0l0,-38.014l-12.711,0l0,84.267l12.711,0l0,-35.307l3.648,0l17.066,35.307l12.592,0l0,-2.118l-18.124,-39.309l19.184,-40.722l0,-2.118l-12.71,0z" id="path54"/>
     </g>
     <g id="g56">
      <path fill="#ef3239" fill-rule="nonzero" d="m454.41527,577.09041c0,1.177 -0.256,2.196 -0.765,3.061c-0.51,0.862 -1.176,1.547 -2,2.059c-0.825,0.51 -1.748,0.882 -2.766,1.118c-1.021,0.235 -2,0.353 -2.942,0.353c-0.942,0 -1.924,-0.118 -2.943,-0.353c-1.02,-0.236 -1.941,-0.608 -2.765,-1.118c-0.824,-0.512 -1.511,-1.177 -2.06,-2.001c-0.55,-0.824 -0.823,-1.865 -0.823,-3.119l0,-52.019c0,-1.177 0.273,-2.197 0.823,-3.061c0.549,-0.864 1.236,-1.549 2.06,-2.059c0.824,-0.511 1.745,-0.882 2.765,-1.118c1.019,-0.235 2.001,-0.353 2.943,-0.353c0.942,0 1.921,0.118 2.942,0.353c1.018,0.236 1.941,0.607 2.766,1.118c0.824,0.51 1.49,1.195 2,2.059c0.509,0.864 0.765,1.884 0.765,3.061l0,52.019zm-29.774,0c0,3.216 0.646,5.944 1.941,8.18c1.294,2.236 2.96,4.04 5.001,5.414c2.04,1.371 4.314,2.372 6.826,3.001c2.511,0.627 5.022,0.942 7.533,0.942c2.431,0 4.902,-0.315 7.413,-0.942c2.511,-0.629 4.786,-1.63 6.827,-3.001c2.04,-1.374 3.708,-3.178 5.003,-5.414c1.293,-2.236 1.941,-4.964 1.941,-8.18l0,-52.019c0,-3.218 -0.648,-5.925 -1.941,-8.121c-1.295,-2.197 -2.963,-3.983 -5.003,-5.355c-2.041,-1.374 -4.316,-2.374 -6.827,-3.001c-2.511,-0.627 -4.982,-0.941 -7.413,-0.941c-2.511,0 -5.022,0.314 -7.533,0.941c-2.512,0.627 -4.786,1.627 -6.826,3.001c-2.041,1.372 -3.707,3.158 -5.001,5.355c-1.295,2.196 -1.941,4.903 -1.941,8.121l0,52.019z" id="path58"/>
     </g>
     <g id="g60">
      <path fill="#ef3239" fill-rule="nonzero" d="m513.9359,538.48833c0,2.274 -0.707,4.254 -2.119,5.942c-1.411,1.687 -3.649,2.531 -6.708,2.531l-10.122,0l0,-27.187l10.122,0c3.138,0 5.393,0.824 6.767,2.473c1.372,1.647 2.06,3.607 2.06,5.885l0,10.356zm-2.472,36.837c0,1.804 -0.51,3.431 -1.529,4.884c-1.021,1.451 -2.825,2.178 -5.414,2.178l-9.534,0l0,-24.48l9.534,0c2.589,0 4.393,0.745 5.414,2.236c1.019,1.49 1.529,3.098 1.529,4.825l0,10.357zm-29.187,-66.378l0,84.267l23.303,0c2.667,0 5.137,-0.393 7.415,-1.176c2.274,-0.787 4.237,-1.904 5.883,-3.356c1.648,-1.452 2.943,-3.197 3.884,-5.237c0.942,-2.041 1.412,-4.315 1.412,-6.826l0,-10.357c0,-2.511 -0.629,-4.884 -1.883,-7.12c-1.255,-2.236 -3.021,-4.296 -5.295,-6.179c6.432,-3.217 9.65,-8.081 9.65,-14.593l0,-10.357c0,-2.588 -0.412,-5.022 -1.235,-7.296c-0.825,-2.278 -2.06,-4.296 -3.707,-6.062c-1.649,-1.765 -3.67,-3.158 -6.061,-4.178c-2.395,-1.02 -5.16,-1.53 -8.299,-1.53l-25.067,0z" id="path62"/>
     </g>
     <g id="g64">
      <path fill="#ef3239" fill-rule="nonzero" d="m569.69951,577.09041c0,1.177 -0.256,2.196 -0.765,3.061c-0.51,0.862 -1.176,1.547 -2,2.059c-0.825,0.51 -1.748,0.882 -2.766,1.118c-1.02,0.235 -2,0.353 -2.942,0.353c-0.941,0 -1.923,-0.118 -2.943,-0.353c-1.02,-0.236 -1.941,-0.608 -2.765,-1.118c-0.824,-0.512 -1.511,-1.177 -2.059,-2.001c-0.551,-0.824 -0.824,-1.865 -0.824,-3.119l0,-52.019c0,-1.177 0.273,-2.197 0.824,-3.061c0.548,-0.864 1.235,-1.549 2.059,-2.059c0.824,-0.511 1.745,-0.882 2.765,-1.118c1.02,-0.235 2.002,-0.353 2.943,-0.353c0.942,0 1.922,0.118 2.942,0.353c1.018,0.236 1.941,0.607 2.766,1.118c0.824,0.51 1.49,1.195 2,2.059c0.509,0.864 0.765,1.884 0.765,3.061l0,52.019zm-29.774,0c0,3.216 0.647,5.944 1.941,8.18c1.294,2.236 2.96,4.04 5.001,5.414c2.04,1.371 4.314,2.372 6.826,3.001c2.511,0.627 5.022,0.942 7.533,0.942c2.431,0 4.902,-0.315 7.413,-0.942c2.511,-0.629 4.786,-1.63 6.827,-3.001c2.04,-1.374 3.708,-3.178 5.003,-5.414c1.293,-2.236 1.941,-4.964 1.941,-8.18l0,-52.019c0,-3.218 -0.648,-5.925 -1.941,-8.121c-1.295,-2.197 -2.963,-3.983 -5.003,-5.355c-2.041,-1.374 -4.316,-2.374 -6.827,-3.001c-2.511,-0.627 -4.982,-0.941 -7.413,-0.941c-2.511,0 -5.022,0.314 -7.533,0.941c-2.512,0.627 -4.786,1.627 -6.826,3.001c-2.041,1.372 -3.707,3.158 -5.001,5.355c-1.294,2.196 -1.941,4.903 -1.941,8.121l0,52.019z" id="path66"/>
     </g>
    </g>
   </g>
  </g>
 </g>
</svg>